<svg xmlns="http://www.w3.org/2000/svg" id="svg13319" version="1.1" viewBox="4 118 524 352" style="max-height: 500px" width="524" height="352">
  <defs id="defs13323"/>
  
  <g transform="matrix(0.69863086,0,0,0.69863086,4.0383543,140.88405)" id="freepik--background-simple--inject-2">
    <path id="path13042" style="fill:#407bff" d="M 700.43,122.26 A 192,192 0 0 0 631.37,62.7 C 594.51,44 536.23,18.52 492.92,19.3 424.61,20.52 270.92,104.42 190.56,120.38 110.2,136.34 -7.87,195.93 16.7,317.23 41.27,438.53 106.46,474.7 231.19,458.74 355.92,442.78 400.32,426.82 501.43,447 602.54,467.18 718.75,453.42 731,308.72 740,202.77 726.74,159 700.43,122.26 Z"/>
    <path id="path13044" style="opacity:0.7;fill:#ffffff" d="M 700.43,122.26 A 192,192 0 0 0 631.37,62.7 C 594.51,44 536.23,18.52 492.92,19.3 424.61,20.52 270.92,104.42 190.56,120.38 110.2,136.34 -7.87,195.93 16.7,317.23 41.27,438.53 106.46,474.7 231.19,458.74 355.92,442.78 400.32,426.82 501.43,447 602.54,467.18 718.75,453.42 731,308.72 740,202.77 726.74,159 700.43,122.26 Z"/>
  </g>
  <g transform="matrix(0.69863086,0,0,0.69863086,7.5121159,84.520607)" id="freepik--Mug--inject-2">
    <path id="path13047" style="fill:#263238" d="m 91.09,126.84 2.7,32.87 c 0,0 -23.43,-3.84 -29.64,8.59 -6.21,12.43 -6.22,44.92 8.29,62.19 10.45,12.45 21.62,7.32 27.05,3.48 l 2.82,35.91 c 0,13.41 25.76,38.11 57.54,38.11 31.78,0 57.54,-24.7 57.54,-38.11 l 11.21,-143 z M 80.73,216 c -9,-7.6 -4.15,-40.77 0,-44.91 3.07,-3.08 10.33,-0.83 13.87,0.54 l 3.71,47.3 c -4.63,1.15 -11.93,1.84 -17.58,-2.93 z"/>
    <path id="path13049" style="fill:#263238" d="m 159.85,308.49 c -30.92,0 -58,-24.06 -58,-38.61 l -2.75,-35 c -6,4 -16.81,8.09 -27,-4.05 -14.2,-16.92 -14.86,-49.72 -8.35,-62.74 5.81,-11.61 25.65,-9.5 29.54,-9 L 90.6,126.31 h 138.54 v 0.54 l -11.21,143 c -0.04,14.58 -27.17,38.64 -58.08,38.64 z m -59.93,-75.44 2.88,36.79 c 0,12.58 24.67,37.65 57.05,37.65 32.38,0 57,-25.07 57,-37.61 L 228.02,127.34 H 91.64 l 2.7,33 -0.64,-0.1 c -0.23,0 -23.12,-3.64 -29.11,8.33 -6.39,12.78 -5.74,45 8.23,61.64 10.11,12 20.87,7.29 26.38,3.39 z m -8.16,-12.78 a 17.1,17.1 0 0 1 -11.35,-3.91 c -3.88,-3.27 -5,-10.71 -5.2,-16.37 -0.51,-12.24 2.46,-26.57 5.17,-29.28 3.21,-3.22 10.4,-1.11 14.4,0.43 l 0.3,0.11 3.76,48 -0.41,0.1 a 27.33,27.33 0 0 1 -6.67,0.92 z M 81.05,215.6 c 5.23,4.42 11.91,4.07 16.73,2.92 L 94.13,172 c -3.2,-1.2 -10.21,-3.37 -13,-0.54 -2.59,2.54 -5.41,16.8 -4.92,28.54 0.32,7.83 2,13.24 4.84,15.65 z"/>
    <ellipse id="ellipse13051" style="fill:#ffffff" ry="29.02" rx="68.75" cy="126.84" cx="159.85001"/>
    <path id="path13053" style="fill:#263238" d="m 159.85,156.37 c -38.19,0 -69.26,-13.25 -69.26,-29.53 0,-16.28 31.07,-29.52 69.26,-29.52 38.19,0 69.25,13.25 69.25,29.52 0,16.27 -31.1,29.53 -69.25,29.53 z m 0,-58.05 c -37.64,0 -68.26,12.8 -68.26,28.52 0,15.72 30.62,28.53 68.26,28.53 37.64,0 68.25,-12.8 68.25,-28.53 0,-15.73 -30.62,-28.52 -68.25,-28.52 z"/>
    <ellipse id="ellipse13055" style="fill:#ffffff" ry="25.82" rx="61.169998" cy="126.84" cx="159.85001"/>
    <path id="path13057" style="fill:#263238" d="m 159.85,153.17 c -34,0 -61.68,-11.81 -61.68,-26.33 0,-14.52 27.67,-26.32 61.68,-26.32 34.01,0 61.67,11.81 61.67,26.32 0,14.51 -27.67,26.33 -61.67,26.33 z m 0,-51.65 c -33.46,0 -60.68,11.36 -60.68,25.32 0,13.96 27.22,25.33 60.68,25.33 33.46,0 60.67,-11.36 60.67,-25.33 0,-13.97 -27.22,-25.32 -60.67,-25.32 z"/>
    <ellipse id="ellipse13059" style="fill:#407bff" ry="7.4499998" rx="42.98" cy="145.21001" cx="159.85001"/>
    <path id="path13061" style="fill:#263238" d="m 159.85,153.17 c -16.26,0 -31.59,-2.66 -43.18,-7.5 l -1.1,-0.46 1.1,-0.46 c 11.59,-4.83 26.92,-7.49 43.18,-7.49 16.26,0 31.59,2.66 43.17,7.49 l 1.11,0.46 -1.11,0.46 c -11.58,4.84 -26.92,7.5 -43.17,7.5 z m -41.66,-8 c 11.33,4.49 26.06,7 41.66,7 15.6,0 30.33,-2.47 41.65,-7 -11.32,-4.49 -26.05,-7 -41.65,-7 -15.6,0 -30.33,2.55 -41.66,7.04 z"/>
  </g>
  <g transform="matrix(0.69863086,0,0,0.69863086,-0.66365113,99.452447)" id="freepik--books-2--inject-2">
    <path id="path13064" style="fill:#263238" d="m 403,203.25 c 0,0 32.7,77.66 40.57,81.77 7.87,4.11 238.59,-15.92 238.59,-15.92 l -6.55,-7.29 -0.31,-50.26 8.63,-0.38 -88.14,-116.08 -199.16,14.55 c 0,0 -10.63,7.36 -12.11,13.8 -1.48,6.44 -1.1,16.07 -1.1,16.07 z"/>
    <path id="path13066" style="fill:#263238" d="m 451.28,286 c -4.39,0 -7.16,-0.18 -7.93,-0.58 -7.94,-4.14 -39.47,-78.84 -40.8,-82 v -0.05 L 382.92,139.6 v -0.07 c 0,-0.1 -0.31,-9.81 1.11,-16.2 1.42,-6.39 11.87,-13.8 12.32,-14.11 l 0.11,-0.07 h 0.13 L 596,94.57 l 0.16,0.22 88.74,116.83 -9.1,0.41 0.31,49.59 7.09,7.89 -1,0.08 C 673.69,270.33 492.23,286 451.28,286 Z m -47.8,-83 c 11.29,26.81 34.23,78.31 40.33,81.49 6.1,3.18 157.3,-8.95 237.31,-15.89 l -6,-6.68 v -0.19 l -0.31,-50.74 8.15,-0.36 -87.4,-115.02 -198.75,14.51 c -1.13,0.81 -10.51,7.64 -11.8,13.43 -1.34,6 -1.12,15 -1.1,15.88 z"/>
    <path id="path13068" style="fill:#e0e0e0" d="M 675.3,211.55 449,229.77 A 27.85,27.85 0 0 0 436.65,250 c -1.66,14.13 4.05,28.48 8.3,30.54 a 28,28 0 0 0 9.77,2.23 l 220.89,-21 z"/>
    <path id="path13070" style="fill:#263238" d="m 454.77,283.28 a 28.31,28.31 0 0 1 -10,-2.28 c -4.57,-2.22 -10.23,-17 -8.58,-31 a 28.6,28.6 0 0 1 12.56,-20.62 l 0.21,-0.07 226.84,-18.31 0.32,51.25 -0.46,0.05 z m -5.66,-53 a 27.67,27.67 0 0 0 -12,19.81 c -1.67,14.28 4.28,28.21 8,30 a 27.54,27.54 0 0 0 9.57,2.18 l 220.37,-20.92 -0.31,-49.27 z"/>
    <path id="path13072" style="fill:#407bff" d="m 445,36.14 -91.29,126.05 c 0,0 -5,4.9 -4.74,16.91 0.26,12.01 0.85,31.6 4.42,33 3.57,1.4 267.73,21.4 267.73,21.4 l 61,-140.87 -4.76,-2 L 679,55.9 683,44.66 451.71,33.82 Z"/>
    <path id="path13074" style="fill:#263238" d="m 621.44,234 h -0.36 c -10.79,-0.81 -264.26,-20.07 -267.86,-21.45 -2.89,-1.11 -4.31,-11.11 -4.75,-33.43 -0.24,-12.09 4.68,-17.07 4.89,-17.28 l 91.33,-126.12 6.94,-2.41 h 0.1 L 683.66,44.19 679.5,56 l -1.64,34.26 4.9,2.1 -0.2,0.47 z M 445.31,36.56 354.11,162.48 c -0.1,0.11 -4.87,5 -4.64,16.61 0.15,7.71 0.62,31.18 4.1,32.52 3.43,1.11 176.07,14.44 267.23,21.39 l 60.65,-140.11 -4.62,-2 1.7,-35.17 3.74,-10.62 -230.49,-10.78 z"/>
    <path id="path13076" style="fill:#ffffff" d="m 361.92,165.78 c 0,0 -8.26,-2.56 -10.61,5.38 -2.35,7.94 3.43,36.71 3.43,36.71 0,0 4.93,2.06 7.2,2.13 2.27,0.07 256.47,16.85 256.47,16.85 L 677.34,90.59 679,55.9 622.62,178 Z"/>
    <path id="path13078" style="fill:#263238" d="m 618.73,227.37 h -0.35 c -2.54,-0.17 -254.23,-16.79 -256.46,-16.85 -2.23,-0.06 -7.17,-2.08 -7.38,-2.16 l -0.24,-0.11 -0.05,-0.26 c -0.24,-1.18 -5.77,-29 -3.41,-36.95 a 8.11,8.11 0 0 1 3.89,-5.15 10.5,10.5 0 0 1 7.28,-0.59 l 260.3,12.21 57.31,-124.15 -1.82,37.42 z M 355.17,207.51 c 1,0.41 4.91,1.93 6.78,2 2.23,0.06 241.58,15.87 256.14,16.83 l 58.76,-135.87 1.53,-32 -55.44,120.05 H 622.6 L 361.84,166.27 h -0.07 a 9.58,9.58 0 0 0 -6.57,0.49 7.23,7.23 0 0 0 -3.41,4.55 c -2.16,7.32 2.82,33.3 3.38,36.2 z"/>
    <path id="path13080" style="fill:#e0e0e0" d="M 616.79,177.73 361.92,165.78 c 0,0 -8.26,-2.56 -10.61,5.38 -2.35,7.94 3.43,36.71 3.43,36.71 0,0 4.93,2.06 7.2,2.13 2.27,0.07 256.47,16.85 256.47,16.85 l -0.35,-48 z"/>
    <path id="path13082" style="fill:#263238" d="m 618.92,227.38 h -0.54 c -2.54,-0.17 -254.23,-16.79 -256.46,-16.85 -2.23,-0.06 -7.17,-2.08 -7.38,-2.16 l -0.24,-0.11 -0.05,-0.26 c -0.24,-1.18 -5.77,-29 -3.41,-36.95 a 8.11,8.11 0 0 1 3.89,-5.15 10.5,10.5 0 0 1 7.28,-0.59 l 255,12 1.57,1.34 v 0.23 z M 355.17,207.51 c 1,0.41 4.91,1.93 6.78,2 2.22,0.06 239.67,15.74 256,16.81 l -0.35,-47.26 -1,-0.83 -254.76,-11.96 h -0.07 a 9.58,9.58 0 0 0 -6.57,0.49 7.23,7.23 0 0 0 -3.41,4.55 c -2.16,7.32 2.82,33.3 3.38,36.2 z"/>
  </g>
  <g transform="matrix(0.69863086,0,0,0.69863086,21.133851,119.54088)" id="freepik--book-1--inject-2">
    <path id="path13085" style="fill:#407bff" d="m 396.16,424 c 0,0 9.34,13.47 19.1,13.26 65.06,-1.42 177.26,29.74 190.28,29.74 13.02,0 22.7,-1.15 22.7,-3.92 0,-2.77 -45.79,-184 -45.79,-184 l -9.08,-2.76 31.18,176.86 c 0,0 -38.69,-5.52 -116.85,-18.55 -78.16,-13.03 -75,-24 -84.44,-22.06 -9.44,1.94 -7.1,11.43 -7.1,11.43 z"/>
    <path id="path13087" style="fill:#263238" d="m 605.54,467.48 c -3.94,0 -16.74,-2.79 -34.45,-6.65 -41.24,-9 -110.29,-24.08 -155.82,-23 H 415 c -9.82,0 -18.89,-12.92 -19.27,-13.47 l -0.08,-0.17 c 0,-0.18 -1.08,-4.48 1.14,-8 a 9.35,9.35 0 0 1 6.35,-4 c 3.4,-0.7 5.26,0.18 9.32,2.12 7.75,3.69 23.87,11.36 75.3,19.94 71.72,12 110.64,17.65 116.16,18.45 l -31.21,-177 10.13,3.09 0.07,0.27 c 1.87,7.4 45.81,181.3 45.81,184.09 0,2.79 -7.78,4.33 -23.18,4.33 z m -185.8,-30.74 c 45.62,0 111.61,14.39 151.56,23.11 17.65,3.85 30.4,6.63 34.24,6.63 16.37,0 22.2,-1.76 22.2,-3.42 C 627.6,460.37 597.82,342 582,279.49 l -8,-2.44 31.17,176.74 -0.69,-0.1 c -0.38,-0.06 -39.59,-5.68 -116.86,-18.56 -51.58,-8.59 -67.78,-16.31 -75.57,-20 -4,-1.89 -5.62,-2.68 -8.68,-2 a 8.4,8.4 0 0 0 -5.72,3.59 10.41,10.41 0 0 0 -1,7.16 c 0.78,1.09 9.65,13.16 18.63,13 1.44,-0.13 2.94,-0.14 4.46,-0.14 z"/>
    <path id="path13089" style="fill:#263238" d="m 614.82,462.27 c -13.42,-0.79 -39.53,-7.58 -104,-20.81 -64.47,-13.23 -112.74,-21.24 -112.74,-21.24 l -1.36,4.65 c 2.23,2.93 10.21,12.6 18.49,12.42 65.11,-1.45 177.31,29.71 190.33,29.71 13.02,0 22.7,-1.15 22.7,-3.92 0,-0.24 -6.73,-0.41 -13.42,-0.81 z"/>
    <path id="path13091" style="fill:#263238" d="m 605.54,467.48 c -3.94,0 -16.74,-2.79 -34.45,-6.65 -41.24,-9 -110.27,-24.07 -155.82,-23 -8.54,0.22 -16.61,-9.61 -18.9,-12.62 l -0.15,-0.2 1.55,-5.31 0.44,0.07 c 0.48,0.08 49.08,8.17 112.76,21.24 23.08,4.74 41.15,8.63 55.66,11.76 25.56,5.51 39.64,8.54 48.22,9 v 0 c 2.55,0.15 5.12,0.27 7.31,0.37 6.58,0.31 6.58,0.31 6.58,0.92 0,2.94 -7.8,4.42 -23.2,4.42 z m -185.8,-30.74 c 45.62,0 111.61,14.39 151.56,23.11 17.65,3.85 30.4,6.63 34.24,6.63 15.11,0 21.24,-1.5 22.09,-3 -0.92,-0.1 -3.17,-0.2 -5.52,-0.31 -2.19,-0.1 -4.76,-0.22 -7.32,-0.37 -8.65,-0.51 -22.76,-3.55 -48.37,-9.06 -14.51,-3.13 -32.58,-7 -55.65,-11.76 -60.45,-12.41 -107.29,-20.32 -112.29,-21.16 l -1.16,4 c 2.38,3.09 9.93,12 17.71,12 h 0.22 c 1.47,-0.07 2.97,-0.08 4.49,-0.08 z"/>
    <path id="path13093" style="fill:#407bff" d="m 185.34,272 c 0,0 -4.74,1.58 -5.52,5.13 -0.78,3.55 -46.19,185.55 -41.85,186 4.34,0.45 243.58,2 246.34,-0.79 2.76,-2.79 11.85,-38.34 11.85,-38.34 L 376,451.27 168.35,446.14 193.22,276.38 Z"/>
    <path id="path13095" style="fill:#263238" d="m 287.91,464.48 c -68.59,0 -148.69,-0.75 -150,-0.87 a 0.66,0.66 0 0 1 -0.49,-0.29 c -0.72,-1 -2.92,-4.1 39.81,-177.73 1.24,-5 2,-8.1 2.09,-8.53 0.84,-3.78 5.65,-5.43 5.85,-5.49 l 0.21,-0.07 8.39,4.61 -24.83,169.54 206.84,5.12 21.49,-29.09 -0.63,2.48 c -0.93,3.65 -9.19,35.74 -12,38.52 -1.36,1.39 -45.89,1.8 -96.73,1.8 z m -149.7,-1.85 c 7.93,0.22 240.58,1.93 245.81,-0.7 2,-2 8.11,-24.38 11,-35.53 l -18.76,25.38 H 376 l -208.22,-5.14 0.08,-0.56 24.82,-169.42 -7.39,-4.06 c -0.88,0.34 -4.37,1.86 -5,4.69 -0.09,0.44 -0.84,3.49 -2.09,8.55 C 142.05,432.77 137.52,460 138.21,462.63 Z"/>
    <path id="path13097" style="fill:#263238" d="m 384.31,462.33 c 2.77,-2.77 11.85,-38.3 11.85,-38.3 l -1.34,1.8 -12.48,32.17 -242,3.12 -2.41,2 c 4.38,0.39 243.62,1.97 246.38,-0.79 z"/>
    <path id="path13099" style="fill:#263238" d="m 287.91,464.48 c -68.59,0 -148.69,-0.75 -150,-0.87 l -1.2,-0.11 3.48,-2.9 h 0.18 l 241.63,-3.11 12.42,-31.95 2.85,-3.86 -0.63,2.48 c -0.93,3.65 -9.19,35.74 -12,38.52 v 0 c -1.36,1.39 -45.88,1.8 -96.73,1.8 z m -148.6,-1.83 c 19,0.29 238.89,1.84 244.68,-0.71 2,-2.17 7.84,-23.31 10.81,-34.66 l -12.12,31.2 h -0.33 l -241.78,3.12 z"/>
    <polygon id="polygon13101" style="fill:#ffffff" points="147.05,457.19 382.34,457.98 398.13,417.32 177.05,427.98 197.58,269.28 190.87,269.67 185.34,272.04"/>
    <path id="path13103" style="fill:#263238" d="m 382.68,458.48 h -0.34 l -235.91,-0.79 38.48,-186 5.93,-2.51 7.31,-0.43 -0.07,0.6 -20.46,158.1 221.26,-10.66 z m -235,-1.78 234.34,0.78 15.39,-39.62 -220.93,10.65 0.08,-0.59 20.44,-158.11 -6,0.36 -5.21,2.23 z"/>
    <polygon id="polygon13105" style="fill:#e0e0e0" points="147.05,457.19 382.34,457.98 398.13,417.32 177.05,427.98 162.84,433.9 152.11,451.75"/>
    <path id="path13107" style="fill:#263238" d="m 382.68,458.48 h -0.34 l -236.44,-0.79 5.81,-6.25 10.79,-17.94 14.53,-6 221.85,-10.69 z m -234.49,-1.78 233.81,0.78 15.39,-39.62 -220.23,10.62 -14,5.82 -10.7,17.79 z"/>
    <polygon id="polygon13109" style="fill:#b8b8b8" points="208.24,401.92 194.03,426.8 398.13,417.32 398.13,381"/>
    <path id="path13111" style="fill:#263238" d="m 193.14,427.34 14.79,-25.88 h 0.26 l 190.44,-21 v 37.34 h -0.48 z m 15.41,-24.95 -13.64,23.86 202.72,-9.41 v -35.28 z"/>
    <path id="path13113" style="fill:#e0e0e0" d="m 199.55,249.54 -5.52,0.79 -31.19,183.57 c 0,0 25.66,-2 60.4,-10.26 34.74,-8.26 105.41,-20.93 129.1,-17.37 23.69,3.56 43.82,17.73 43.82,17.73 0,0 29.56,5.87 62.72,12.58 33.16,6.71 82.51,17 115.28,22.51 32.77,5.51 40.66,3.15 40.66,3.15 l -40.66,-189.1 -3.95,-1.14 21.71,171.33 c 0,0 -136.92,-37.85 -155.1,-37.85 -18.18,0 -28,-19.35 -64.35,-26.45 -36.35,-7.1 -77,7.1 -111.33,13 a 475.89,475.89 0 0 0 -63.56,15.8 l 9.08,-158.31 z"/>
    <path id="path13115" style="fill:#263238" d="m 608.1,463.29 c -5.9,0 -16.35,-0.7 -34,-3.68 C 546.5,455 507.22,447 475.66,440.53 L 458.78,437.1 C 426,430.47 396.36,424.58 396.06,424.52 l -0.19,-0.08 c -0.2,-0.14 -20.32,-14.18 -43.61,-17.68 -24.06,-3.61 -97,9.75 -128.9,17.36 a 435.69,435.69 0 0 1 -60.48,10.28 l -0.64,0.05 0.11,-0.63 31.25,-183.94 6,-0.84 h 7.64 l -9.07,158.1 a 483,483 0 0 1 62.94,-15.58 c 8.66,-1.49 17.59,-3.48 27.05,-5.59 28.13,-6.28 57.21,-12.76 84.46,-7.43 19.67,3.85 31.66,11.3 41.3,17.28 8.23,5.12 14.73,9.16 22.95,9.16 17.53,0 142.62,34.38 154.51,37.66 l -21.77,-171.35 5,1.49 0.06,0.29 40.73,189.55 -0.44,0.13 c -0.15,0.05 -1.91,0.54 -6.86,0.54 z M 396.36,423.56 c 1.94,0.39 30.8,6.12 62.62,12.56 l 16.88,3.43 c 31.55,6.43 70.82,14.42 98.38,19.07 28.07,4.74 37.89,3.64 40,3.27 l -40.51,-188.32 -2.93,-0.88 21.71,171.31 -0.72,-0.2 c -1.37,-0.38 -137.08,-37.83 -155,-37.83 -8.51,0 -15.12,-4.11 -23.48,-9.31 -9.56,-5.94 -21.47,-13.34 -41,-17.15 -27,-5.29 -56,1.17 -84,7.42 -9.47,2.11 -18.41,4.11 -27.1,5.61 a 479.38,479.38 0 0 0 -63.49,15.77 l -0.7,0.24 9.11,-158.55 h -6.54 l -5.13,0.73 -31,182.58 a 443.59,443.59 0 0 0 59.69,-10.2 c 33,-7.87 104.77,-21 129.28,-17.38 22.72,3.45 42.44,16.8 43.93,17.83 z"/>
    <polygon id="polygon13117" style="fill:#ffffff" points="194.03,250.33 206.66,249.54 177.05,427.98 162.84,433.9"/>
    <path id="path13119" style="fill:#263238" d="M 162.19,434.71 193.6,249.85 207.26,249 177.5,428.34 Z m 32.26,-183.91 -31,182.29 13.12,-5.47 29.46,-177.54 z"/>
    <path id="path13121" style="fill:#ffffff" d="m 393.39,225.06 c 0,0 3.56,-6.32 35.93,2 32.37,8.32 66.27,29.16 93.91,33.1 C 550.87,264.1 569,268 569,268 l 37.51,190.29 c 0,0 -61.17,-8.29 -118.81,-23.65 C 430.06,419.28 405.63,409 398.13,417.32 Z"/>
    <path id="path13123" style="fill:#263238" d="m 607.15,458.92 -0.69,-0.1 c -0.61,-0.08 -61.88,-8.47 -118.89,-23.7 -13.72,-3.66 -25.42,-7 -35.73,-9.93 C 420,416.12 404,411.57 398.5,417.66 l -0.84,0.92 -4.77,-193.64 0.07,-0.12 c 0.15,-0.28 4.11,-6.56 36.48,1.73 14.78,3.79 29.9,10.2 44.52,16.39 17.67,7.49 34.35,14.57 49.34,16.71 27.33,3.9 45.65,7.86 45.83,7.9 l 0.32,0.07 z M 407,413.85 c 8.7,0 22.87,4 45.15,10.38 10.31,2.93 22,6.26 35.72,9.93 53.63,14.33 111.13,22.6 118.03,23.57 L 568.6,268.46 c -2.56,-0.54 -20.12,-4.2 -45.44,-7.82 -15.12,-2.16 -31.86,-9.26 -49.59,-16.77 -14.58,-6.19 -29.67,-12.58 -44.38,-16.35 -29,-7.44 -34.62,-3 -35.29,-2.29 l 4.7,191 c 1.93,-1.65 4.65,-2.38 8.4,-2.38 z"/>
    <path id="path13125" style="fill:#263238" d="m 558.84,292 c -63.72,-14 -67.55,-14.42 -67.69,-14.43 v -1 c 0.08,0 2.79,0.16 67.87,14.46 z"/>
    <path id="path13127" style="fill:#263238" d="m 560.24,300.21 c -8.12,-1.79 -15.6,-3.45 -22.31,-4.95 -8.49,-1.89 -15.82,-3.52 -21.66,-4.77 -22.06,-4.73 -24.37,-4.93 -24.46,-4.94 l 0.05,-1 c 0.08,0 2.15,0.15 24.62,5 5.84,1.25 13.17,2.89 21.66,4.78 l 22.32,4.94 z"/>
    <path id="path13129" style="fill:#263238" d="m 561.64,308.43 c -8.46,-1.86 -16.81,-3.76 -24.19,-5.44 -7.87,-1.79 -14.66,-3.33 -20.24,-4.53 -21.66,-4.64 -24.63,-4.9 -24.75,-4.91 l 0.07,-1 c 0.11,0 3,0.24 24.89,4.93 5.58,1.2 12.38,2.75 20.26,4.54 7.37,1.67 15.72,3.57 24.18,5.43 z"/>
    <path id="path13131" style="fill:#263238" d="m 563,316.65 c -8,-1.75 -16.15,-3.65 -24.06,-5.49 -7.74,-1.79 -15.06,-3.49 -20.82,-4.73 -21.17,-4.54 -25,-4.87 -25,-4.88 l 0.07,-1 c 0.15,0 3.85,0.32 25.19,4.9 5.77,1.24 13.09,2.93 20.84,4.73 7.91,1.83 16.09,3.73 24,5.48 z"/>
    <path id="path13133" style="fill:#263238" d="m 564.45,324.87 c -7.28,-1.6 -15.48,-3.54 -23.4,-5.41 -8.15,-1.92 -15.85,-3.75 -21.95,-5 -20.64,-4.43 -25.29,-4.85 -25.34,-4.85 l 0.08,-1 c 0.18,0 4.7,0.41 25.47,4.87 6.11,1.31 13.81,3.13 22,5.06 7.92,1.87 16.11,3.8 23.38,5.4 z"/>
    <path id="path13135" style="fill:#263238" d="m 565.85,333.09 c -6.54,-1.44 -14.63,-3.38 -22.46,-5.26 -8.28,-2 -16.85,-4.06 -23.34,-5.45 -20.11,-4.32 -25.58,-4.82 -25.64,-4.82 l 0.09,-1 c 0.22,0 5.55,0.5 25.76,4.84 6.5,1.4 15.07,3.46 23.37,5.45 7.82,1.88 15.9,3.83 22.43,5.26 z"/>
    <path id="path13137" style="fill:#263238" d="m 567.25,341.31 c -5.79,-1.27 -13.36,-3.12 -21.38,-5.08 -8.82,-2.16 -18,-4.39 -24.88,-5.88 -19.55,-4.2 -25.86,-4.78 -25.92,-4.79 l 0.08,-1 c 0.06,0 6.41,0.58 26.05,4.8 6.94,1.5 16.08,3.73 24.91,5.89 8,1.95 15.57,3.8 21.35,5.07 z"/>
    <path id="path13139" style="fill:#263238" d="m 568.65,349.53 c -5,-1.11 -12.39,-2.93 -20.16,-4.86 -9.41,-2.34 -19.14,-4.75 -26.55,-6.35 -19,-4.08 -26.15,-4.75 -26.22,-4.75 l 0.09,-1 c 0.07,0 7.26,0.68 26.34,4.77 7.42,1.6 17.16,4 26.58,6.36 7.77,1.93 15.1,3.75 20.13,4.85 z"/>
    <path id="path13141" style="fill:#263238" d="m 570.05,357.75 c -4.32,-0.95 -11.35,-2.72 -18.78,-4.59 -9.58,-2.42 -20.44,-5.16 -28.39,-6.87 -18.44,-4 -26.43,-4.71 -26.51,-4.72 l 0.09,-1 c 0.08,0 8.12,0.77 26.63,4.75 8,1.71 18.83,4.45 28.42,6.87 7.43,1.87 14.45,3.64 18.76,4.59 z"/>
    <path id="path13143" style="fill:#263238" d="m 571.45,366 c -3.62,-0.79 -10,-2.41 -17.3,-4.29 -10.22,-2.62 -21.8,-5.58 -30.32,-7.42 -17.88,-3.84 -26.72,-4.68 -26.8,-4.69 l 0.09,-1 c 0.09,0 9,0.85 26.92,4.71 8.54,1.84 20.13,4.8 30.36,7.42 7.33,1.87 13.66,3.5 17.27,4.29 z"/>
    <path id="path13145" style="fill:#263238" d="m 572.85,374.2 c -2.94,-0.65 -8.83,-2.18 -15.65,-3.95 -10.37,-2.69 -23.27,-6 -32.43,-8 -17.31,-3.73 -27,-4.66 -27.09,-4.66 l 0.09,-1 a 262.09,262.09 0 0 1 27.23,4.67 c 9.18,2 22.09,5.33 32.47,8 6.81,1.77 12.69,3.3 15.62,3.94 z"/>
    <path id="path13147" style="fill:#263238" d="m 574.26,382.42 c -2.31,-0.51 -7.42,-1.86 -13.89,-3.56 -10.46,-2.75 -24.79,-6.52 -34.65,-8.65 a 262.22,262.22 0 0 0 -27.39,-4.63 l 0.1,-1 a 265.23,265.23 0 0 1 27.5,4.65 c 9.88,2.13 24.22,5.91 34.7,8.67 6.45,1.69 11.55,3 13.84,3.54 z"/>
    <path id="path13149" style="fill:#263238" d="m 575.66,390.64 c -1.71,-0.38 -6.21,-1.58 -11.9,-3.1 -11.16,-3 -26.44,-7.06 -37.1,-9.36 a 266.13,266.13 0 0 0 -27.67,-4.6 l 0.09,-1 a 266.56,266.56 0 0 1 27.79,4.61 c 10.68,2.31 26,6.39 37.15,9.38 5.68,1.51 10.16,2.71 11.85,3.08 z"/>
    <path id="path13151" style="fill:#263238" d="m 577.06,398.86 c -1.16,-0.26 -4.73,-1.22 -9.67,-2.56 -10.54,-2.86 -28.2,-7.64 -39.78,-10.15 a 274.26,274.26 0 0 0 -28,-4.57 l 0.1,-1 a 270.11,270.11 0 0 1 28.08,4.59 c 11.61,2.5 29.28,7.29 39.83,10.15 4.93,1.34 8.49,2.3 9.62,2.55 z"/>
    <path id="path13153" style="fill:#263238" d="m 578.46,407.08 c -0.67,-0.15 -3.25,-0.86 -7.15,-1.93 -10.5,-2.9 -30,-8.28 -42.76,-11 a 275.06,275.06 0 0 0 -28.26,-4.53 l 0.1,-1 a 275.54,275.54 0 0 1 28.37,4.56 c 12.74,2.75 32.3,8.14 42.81,11 3.75,1 6.46,1.78 7.1,1.92 z"/>
    <path id="path13155" style="fill:#263238" d="m 579.86,415.3 c -0.26,-0.06 -1.63,-0.44 -4.1,-1.13 -9.58,-2.69 -32,-9 -46.26,-12.07 A 280.46,280.46 0 0 0 501,397.59 l 0.09,-1 a 285.7,285.7 0 0 1 28.67,4.53 c 14.29,3.09 36.74,9.39 46.32,12.08 2.21,0.62 3.81,1.07 4.05,1.12 z"/>
    <path id="path13157" style="fill:#263238" d="m 581.23,423.51 c -0.32,-0.09 -32.58,-9.5 -50.79,-13.44 -13.94,-3 -28.69,-4.46 -28.84,-4.48 l 0.1,-1 a 291.57,291.57 0 0 1 28.95,4.49 c 18.24,4 50.54,13.37 50.86,13.46 z"/>
    <path id="path13159" style="fill:#263238" d="m 481,274.76 c -12.41,-5.71 -21.14,-10.69 -28.15,-14.69 -7.29,-4.17 -13.06,-7.45 -19.42,-9.51 a 116.82,116.82 0 0 0 -27.72,-4.82 v -1 a 117.5,117.5 0 0 1 28,4.87 c 6.47,2.09 12.27,5.4 19.62,9.59 7,4 15.7,9 28.07,14.65 z"/>
    <path id="path13161" style="fill:#263238" d="m 481.67,282.88 c -11.13,-5.12 -19.33,-9.74 -25.92,-13.45 -7.69,-4.33 -13.77,-7.75 -20.9,-10.06 -13.82,-4.49 -27.84,-5.23 -28.92,-5.06 l -0.26,-1 c 0.66,-0.2 15,0.38 29.49,5.08 7.23,2.34 13.34,5.78 21.08,10.14 6.91,3.89 14.75,8.31 25.85,13.42 z"/>
    <path id="path13163" style="fill:#263238" d="m 482.3,291 c -9.92,-4.57 -17.25,-8.64 -23.72,-12.24 -8.05,-4.48 -14.41,-8 -22.34,-10.6 -15.52,-5.06 -29.37,-5.54 -30.22,-5.29 l -0.3,-1 c 1.2,-0.38 15.54,0.31 30.83,5.3 8,2.62 14.42,6.17 22.52,10.68 6.45,3.58 13.76,7.65 23.65,12.2 z"/>
    <path id="path13165" style="fill:#263238" d="m 482.94,299.13 c -8.78,-4 -15.56,-7.76 -21.54,-11 -8,-4.42 -15,-8.23 -23.77,-11.11 -16.36,-5.36 -30.09,-6 -31.56,-5.53 l -0.3,-0.95 c 2,-0.64 16.15,0.28 32.17,5.53 8.87,2.9 15.85,6.74 23.94,11.18 6,3.28 12.73,7 21.47,11 z"/>
    <path id="path13167" style="fill:#263238" d="m 483.57,307.26 c -7.69,-3.54 -13.9,-6.91 -19.38,-9.88 -8.32,-4.52 -15.5,-8.41 -25.18,-11.6 -17.52,-5.76 -31,-6.35 -32.89,-5.75 l -0.3,-0.95 c 2.43,-0.78 16.77,0.25 33.51,5.75 9.76,3.21 17,7.13 25.34,11.67 5.46,3 11.66,6.32 19.31,9.85 z"/>
    <path id="path13169" style="fill:#263238" d="m 484.2,315.38 c -6.66,-3.06 -12.05,-5.95 -17.25,-8.75 -8.55,-4.58 -15.94,-8.54 -26.55,-12 -18.53,-6.12 -31.81,-6.75 -34.23,-6 l -0.3,-0.95 c 3.05,-1 17.31,0.19 34.84,6 10.7,3.53 18.48,7.7 26.71,12.11 5.19,2.79 10.57,5.67 17.2,8.72 z"/>
    <path id="path13171" style="fill:#263238" d="m 484.83,323.5 c -5.69,-2.61 -10.51,-5.17 -15.16,-7.64 -8.37,-4.43 -16.27,-8.62 -27.88,-12.47 -19.07,-6.31 -32.58,-7.16 -35.57,-6.2 l -0.3,-1 c 3.58,-1.14 17.56,0 36.18,6.21 11.69,3.88 19.63,8.08 28,12.54 4.65,2.46 9.46,5 15.12,7.61 z"/>
    <path id="path13173" style="fill:#263238" d="m 485.46,331.63 c -4.78,-2.2 -9,-4.43 -13.13,-6.58 -8.48,-4.45 -16.5,-8.65 -29.16,-12.85 -20.35,-6.77 -33.43,-7.54 -36.9,-6.44 l -0.3,-0.95 c 4.49,-1.43 19.17,0.34 37.52,6.44 12.74,4.23 21.16,8.65 29.31,12.92 4.09,2.14 8.32,4.36 13.08,6.55 z"/>
    <path id="path13175" style="fill:#263238" d="m 486.09,339.75 c -3.94,-1.81 -7.44,-3.63 -11.15,-5.55 A 189.55,189.55 0 0 0 444.56,321 c -19.86,-6.62 -33.75,-8.09 -38.24,-6.66 l -0.3,-0.95 c 4.8,-1.53 18.67,-0.06 38.86,6.66 a 191,191 0 0 1 30.52,13.26 c 3.7,1.92 7.19,3.73 11.11,5.53 z"/>
    <path id="path13177" style="fill:#263238" d="m 486.72,347.87 c -3.16,-1.45 -6.11,-3 -9.24,-4.57 A 201.9,201.9 0 0 0 446,329.81 c -22.05,-7.37 -35.1,-8.31 -39.58,-6.89 l -0.3,-0.95 c 4.84,-1.54 17.94,-0.54 40.2,6.89 a 203,203 0 0 1 31.67,13.55 c 3.11,1.6 6.06,3.11 9.2,4.56 z"/>
    <path id="path13179" style="fill:#263238" d="m 487.35,356 c -2.45,-1.13 -4.86,-2.36 -7.42,-3.65 a 215.75,215.75 0 0 0 -32.59,-13.74 c -27.83,-9.31 -37.89,-8.08 -40.92,-7.11 l -0.3,-1 c 6.6,-2.09 21.74,0.5 41.53,7.12 a 214.88,214.88 0 0 1 32.73,13.8 c 2.55,1.29 4.95,2.51 7.39,3.63 z"/>
    <path id="path13181" style="fill:#263238" d="m 488,364.12 c -1.82,-0.84 -3.71,-1.79 -5.71,-2.79 a 228,228 0 0 0 -33.55,-13.92 c -26.28,-8.81 -37.48,-8.85 -42.25,-7.33 l -0.3,-1 c 7,-2.24 21.87,0.3 42.87,7.35 a 229.62,229.62 0 0 1 33.68,14 c 2,1 3.88,1.94 5.68,2.77 z"/>
    <path id="path13183" style="fill:#263238" d="m 488.61,372.25 c -1.26,-0.59 -2.59,-1.25 -4.13,-2 -6.12,-3 -15.37,-7.63 -34.37,-14 -21.74,-7.31 -36.4,-9.85 -43.59,-7.57 l -0.3,-0.95 c 7.49,-2.38 21.95,0.09 44.21,7.57 19.06,6.41 28.35,11 34.49,14.07 1.54,0.76 2.86,1.42 4.11,2 z"/>
    <path id="path13185" style="fill:#263238" d="m 489.24,380.37 c -0.79,-0.37 -1.68,-0.8 -2.72,-1.31 -5.41,-2.66 -14.47,-7.11 -35,-14 -23,-7.74 -37.29,-10.22 -44.93,-7.79 l -0.3,-1 c 7.85,-2.5 22.32,0 45.55,7.8 20.61,6.94 29.71,11.41 35.14,14.08 1,0.51 1.92,0.94 2.7,1.3 z"/>
    <path id="path13187" style="fill:#263238" d="m 489.87,388.49 -1.52,-0.73 c -4,-1.92 -13.21,-6.43 -35.46,-13.93 -24.32,-8.2 -38.16,-10.6 -46.26,-8 l -0.31,-0.95 c 8.33,-2.65 22.35,-0.25 46.89,8 22.31,7.53 31.61,12.05 35.58,14 0.6,0.3 1.09,0.54 1.5,0.72 z"/>
    <path id="path13189" style="fill:#263238" d="m 490.5,396.62 -0.58,-0.28 c -7.62,-3.68 -19.61,-8.29 -35.65,-13.71 -25.33,-8.55 -39.12,-10.94 -47.59,-8.24 l -0.31,-1 c 8.82,-2.8 22.34,-0.49 48.22,8.26 16.08,5.43 28.11,10.05 35.76,13.75 l 0.57,0.27 z"/>
    <path id="path13191" style="fill:#263238" d="m 491.12,404.73 c -0.08,0 -8.38,-4.13 -35.46,-13.29 -26.7,-9 -40,-11.33 -48.93,-8.48 l -0.31,-0.95 c 9.2,-2.93 22.63,-0.63 49.56,8.48 27.17,9.19 35.51,13.31 35.59,13.35 z"/>
    <path id="path13193" style="fill:#ffffff" d="m 393.39,225.06 4.74,192.26 c 0,0 -14.21,-29.21 -52.11,-28 -37.9,1.21 -121.59,30.4 -135,33.16 -13.41,2.76 -33.97,5.52 -33.97,5.52 l 22.5,-183.57 c 0,0 99.45,-18.18 120.45,-24.5 21,-6.32 39.09,-13 52.51,-9.87 13.42,3.13 20.88,5.53 20.88,15 z"/>
    <path id="path13195" style="fill:#263238" d="m 176.48,428.56 0.08,-0.64 22.54,-183.92 0.36,-0.07 c 1,-0.18 99.7,-18.22 120.36,-24.46 q 4.06,-1.23 8,-2.45 c 17.69,-5.48 33,-10.21 44.78,-7.43 13.21,3.11 21.31,5.52 21.31,15.48 l 4.8,194.55 -1,-2.06 c -0.14,-0.29 -14.53,-28.92 -51.65,-27.75 -27.84,0.87 -80.37,16.88 -111.76,26.44 -11.38,3.47 -19.61,6 -23.17,6.71 -13.28,2.74 -33.78,5.51 -34,5.54 z M 200,244.83 177.63,427.4 c 3.58,-0.5 21.35,-3 33.27,-5.44 3.52,-0.72 12.15,-3.35 23.08,-6.68 31.44,-9.58 84,-25.61 112,-26.49 32.33,-1 47.72,20.21 51.58,26.55 l -4.69,-190.28 c 0,-9.23 -7.42,-11.43 -20.53,-14.51 -11.56,-2.72 -26.71,2 -44.26,7.41 -2.62,0.8 -5.28,1.63 -8,2.45 C 300,226.47 206.62,243.62 200,244.83 Z"/>
    <rect id="rect13197" style="fill:#263238" transform="matrix(0.98,-0.22,0.22,0.98,-50.04,62.37)" height="1" width="75.550003" y="257.82001" x="220.31"/>
    <path id="path13199" style="fill:#263238" d="m 220.51,275.25 -0.22,-1 c 16.19,-3.65 47,-10.62 47.87,-10.89 1,-0.32 25.46,-5.76 26.5,-6 l 0.21,1 c -8.79,2 -25.63,5.73 -26.41,6 -1.1,0.33 -46.04,10.46 -47.95,10.89 z"/>
    <path id="path13201" style="fill:#263238" d="m 219.7,283.47 -0.22,-1 c 0.46,-0.11 46.13,-10.52 48.26,-11.19 2.13,-0.67 25.72,-5.9 26.73,-6.13 l 0.22,1 c -0.25,0 -24.68,5.48 -26.65,6.1 -2.17,0.75 -46.45,10.75 -48.34,11.22 z"/>
    <path id="path13203" style="fill:#263238" d="m 218.9,291.69 -0.23,-1 c 0.45,-0.1 45.44,-10.48 48.66,-11.49 3,-0.94 26,-6.05 26.95,-6.26 l 0.22,1 c -0.24,0.06 -23.92,5.31 -26.87,6.24 -3.25,1.02 -46.88,11.09 -48.73,11.51 z"/>
    <path id="path13205" style="fill:#263238" d="m 218.09,299.92 -0.23,-1 c 0.45,-0.1 44.76,-10.45 49.05,-11.8 4,-1.25 26.24,-6.18 27.19,-6.39 l 0.21,1 c -0.23,0 -23.16,5.13 -27.1,6.37 -4.33,1.36 -47.3,11.39 -49.12,11.82 z"/>
    <path id="path13207" style="fill:#263238" d="m 217.28,308.13 -0.23,-1 c 0.44,-0.1 44.08,-10.41 49.45,-12.1 5,-1.56 26.5,-6.32 27.41,-6.52 l 0.22,1 c -0.23,0.05 -22.4,5 -27.33,6.5 -5.41,1.7 -47.72,11.7 -49.52,12.12 z"/>
    <path id="path13209" style="fill:#263238" d="m 216.47,316.36 -0.23,-1 c 0.43,-0.1 43.39,-10.37 49.84,-12.4 6,-1.88 27.43,-6.61 27.64,-6.66 l 0.22,1 c -0.22,0.05 -21.64,4.77 -27.56,6.63 -6.48,2.07 -49.48,12.32 -49.91,12.43 z"/>
    <path id="path13211" style="fill:#263238" d="m 215.66,324.58 -0.23,-1 c 0.42,-0.1 42.71,-10.34 50.23,-12.7 7,-2.19 27.67,-6.75 27.88,-6.79 l 0.21,1 c -0.21,0.05 -20.87,4.6 -27.79,6.77 -7.55,2.37 -49.87,12.61 -50.3,12.72 z"/>
    <path id="path13213" style="fill:#263238" d="m 214.85,332.8 -0.23,-1 c 0.41,-0.11 42,-10.31 50.63,-13 7.94,-2.5 27.9,-6.88 28.1,-6.93 l 0.22,1 c -0.21,0 -20.12,4.42 -28,6.9 -8.66,2.71 -50.3,12.93 -50.72,13.03 z"/>
    <path id="path13215" style="fill:#263238" d="m 214.05,341 -0.25,-1 c 0.42,-0.1 41.35,-10.27 51,-13.32 8.94,-2.81 28.14,-7 28.33,-7.05 l 0.22,1 c -0.19,0 -19.35,4.23 -28.25,7 -9.68,3.11 -50.64,13.29 -51.05,13.37 z"/>
    <path id="path13217" style="fill:#263238" d="m 213.24,349.24 -0.25,-1 c 0.41,-0.1 40.66,-10.24 51.43,-13.62 9.92,-3.12 28.37,-7.15 28.56,-7.19 l 0.21,1 c -0.18,0 -18.59,4.06 -28.48,7.16 -10.78,3.41 -51.07,13.55 -51.47,13.65 z"/>
    <path id="path13219" style="fill:#263238" d="m 212.43,357.46 -0.25,-1 c 0.4,-0.1 40,-10.2 51.82,-13.92 10.92,-3.43 28.61,-7.28 28.79,-7.32 l 0.21,1 c -0.17,0 -17.83,3.87 -28.7,7.29 -11.87,3.74 -51.47,13.85 -51.87,13.95 z"/>
    <path id="path13221" style="fill:#263238" d="m 211.62,365.68 -0.25,-1 c 0.39,-0.1 39.3,-10.16 52.21,-14.22 11.91,-3.75 28.86,-7.42 29,-7.46 l 0.21,1 c -0.17,0 -17.07,3.7 -28.94,7.43 -12.91,4.08 -51.85,14.15 -52.23,14.25 z"/>
    <path id="path13223" style="fill:#263238" d="m 210.81,373.9 -0.25,-1 c 0.38,-0.1 38.61,-10.13 52.61,-14.52 12.9,-4.06 29.09,-7.56 29.25,-7.59 l 0.21,1 c -0.16,0 -16.31,3.52 -29.16,7.56 -14.02,4.41 -52.27,14.45 -52.66,14.55 z"/>
    <path id="path13225" style="fill:#263238" d="m 210,382.12 -0.26,-1 c 0.38,-0.11 37.93,-10.1 53,-14.84 13.89,-4.36 29.33,-7.68 29.48,-7.72 l 0.21,1 c -0.15,0 -15.54,3.34 -29.39,7.7 C 248,372 210.38,382 210,382.12 Z"/>
    <path id="path13227" style="fill:#263238" d="m 209.2,390.34 -0.26,-1 c 0.37,-0.1 37.24,-10.06 53.39,-15.14 14.89,-4.68 29.57,-7.82 29.72,-7.85 l 0.2,1 c -0.14,0 -14.78,3.16 -29.62,7.82 -16.17,5.11 -53.06,15.07 -53.43,15.17 z"/>
    <path id="path13229" style="fill:#263238" d="m 208.39,398.56 -0.26,-1 c 0.36,-0.1 36.56,-10 53.79,-15.44 15.87,-5 29.8,-8 29.94,-8 l 0.21,1 c -0.14,0 -14,3 -29.85,8 -17.22,5.41 -53.47,15.34 -53.83,15.44 z"/>
    <path id="path13231" style="fill:#263238" d="m 305.57,247.59 -0.31,-1 c 2.82,-0.9 69.18,-21.9 79.25,-10.83 l -0.74,0.68 c -9.64,-10.56 -77.52,10.93 -78.2,11.15 z"/>
    <path id="path13233" style="fill:#263238" d="m 305.35,255.56 -0.31,-0.95 c 0.24,-0.08 23.61,-7.58 44.4,-11.49 8.82,-1.64 29.9,-4.84 35.1,0.88 l -0.74,0.68 c -3.37,-3.72 -16.15,-3.93 -34.18,-0.58 -20.72,3.9 -44.04,11.38 -44.27,11.46 z"/>
    <path id="path13235" style="fill:#263238" d="m 305.13,263.53 -0.3,-0.95 c 0.23,-0.08 24,-7.79 44.53,-11.59 17.79,-3.22 31.62,-2.75 35.21,1.2 l -0.74,0.68 c -3.31,-3.65 -17.1,-4 -34.29,-0.89 -20.44,3.78 -44.17,11.47 -44.41,11.55 z"/>
    <path id="path13237" style="fill:#263238" d="m 304.92,271.5 -0.32,-0.95 c 0.25,-0.08 24.44,-8.05 44.67,-11.68 16.91,-3 31.77,-2.4 35.33,1.51 l -0.74,0.68 c -3.29,-3.62 -18.08,-4.14 -34.41,-1.21 -20.16,3.62 -44.29,11.57 -44.53,11.65 z"/>
    <path id="path13239" style="fill:#263238" d="m 304.7,279.47 -0.31,-1 c 0.24,-0.08 24.85,-8.27 44.8,-11.78 16.33,-2.87 31.9,-2.07 35.44,1.83 l -0.74,0.68 c -2.86,-3.15 -16.87,-4.63 -34.53,-1.53 -19.87,3.55 -44.36,11.72 -44.66,11.8 z"/>
    <path id="path13241" style="fill:#263238" d="m 304.49,287.45 -0.32,-0.95 c 0.25,-0.09 25.27,-8.5 44.94,-11.89 17.38,-3 32.41,-1.3 35.56,2.15 l -0.75,0.68 c -2.5,-2.76 -16.28,-5 -34.64,-1.84 -19.59,3.4 -44.54,11.76 -44.79,11.85 z"/>
    <path id="path13243" style="fill:#263238" d="m 304.27,295.42 -0.32,-0.95 c 0.25,-0.09 25.69,-8.72 45.08,-12 C 367.69,279.34 382,282 384.7,285 l -0.74,0.68 c -2.27,-2.5 -15.83,-5.35 -34.77,-2.16 -19.3,3.2 -44.67,11.81 -44.92,11.9 z"/>
    <path id="path13245" style="fill:#263238" d="m 304.05,303.39 -0.32,-0.95 c 0.26,-0.09 26.12,-8.93 45.21,-12.08 19.09,-3.15 33.39,0.15 35.79,2.78 l -0.74,0.68 c -2.21,-2.43 -16.52,-5.5 -34.88,-2.48 -19.02,3.14 -44.8,11.96 -45.06,12.05 z"/>
    <path id="path13247" style="fill:#263238" d="m 303.84,311.36 -0.33,-0.94 c 0.26,-0.1 26.54,-9.15 45.35,-12.19 18.66,-3 33.5,0.47 35.9,3.1 L 384,302 c -2,-2.2 -16.32,-5.81 -35,-2.79 -18.68,3.02 -44.9,12.06 -45.16,12.15 z"/>
    <path id="path13249" style="fill:#263238" d="m 303.62,319.33 -0.33,-0.94 c 0.27,-0.1 27,-9.36 45.49,-12.29 19,-3 33.84,1 36,3.42 l -0.74,0.68 c -1.6,-1.76 -15.68,-6.18 -35.12,-3.11 -18.42,2.91 -45.03,12.15 -45.3,12.24 z"/>
    <path id="path13251" style="fill:#263238" d="m 303.4,327.3 -0.33,-0.94 c 0.27,-0.1 27.38,-9.57 45.63,-12.38 19.75,-3.05 34.39,1.83 36.12,3.73 l -0.74,0.68 c -1.2,-1.32 -14.74,-6.59 -35.23,-3.43 -18.15,2.81 -45.18,12.25 -45.45,12.34 z"/>
    <path id="path13253" style="fill:#263238" d="m 303.18,335.28 -0.33,-0.95 c 0.28,-0.1 27.81,-9.77 45.76,-12.48 20.83,-3.15 34.95,2.63 36.24,4 l -0.74,0.68 c -1.07,-1.19 -15,-6.81 -35.35,-3.74 -17.86,2.74 -45.3,12.39 -45.58,12.49 z"/>
    <path id="path13255" style="fill:#263238" d="m 303,343.25 -0.34,-0.95 c 0.28,-0.09 28.23,-10 45.9,-12.58 20.68,-3 35.2,3.1 36.35,4.37 l -0.74,0.68 c -0.63,-0.7 -14.16,-7.2 -35.46,-4.06 -17.61,2.59 -45.46,12.44 -45.71,12.54 z"/>
    <path id="path13257" style="fill:#263238" d="m 302.75,351.22 -0.34,-0.94 c 0.29,-0.11 28.65,-10.18 46,-12.69 20.62,-3 35.28,3.39 36.46,4.69 l -0.74,0.68 c -0.81,-0.81 -14.64,-7.39 -35.58,-4.38 -17.24,2.49 -45.55,12.54 -45.8,12.64 z"/>
    <path id="path13259" style="fill:#263238" d="m 302.53,359.19 -0.33,-0.94 c 0.28,-0.1 29.07,-10.35 46.16,-12.78 21.62,-3 35.9,4.25 36.58,5 l -0.73,0.68 c -1.13,-1 -15.15,-7.54 -35.71,-4.69 -16.99,2.42 -45.68,12.63 -45.97,12.73 z"/>
    <path id="path13261" style="fill:#263238" d="m 302.32,367.16 -0.34,-0.94 c 0.29,-0.1 29.49,-10.56 46.3,-12.88 21.56,-2.93 36,4.55 36.7,5.32 l -0.74,0.68 c -0.07,0 -13.78,-8 -35.82,-5 -16.71,2.29 -45.81,12.72 -46.1,12.82 z"/>
    <path id="path13263" style="fill:#263238" d="m 302.1,375.13 -0.34,-0.94 c 0.3,-0.11 29.92,-10.77 46.44,-13 22.33,-3 36.56,5.47 36.7,5.55 l -0.52,0.86 c -0.14,-0.09 -14.08,-8.34 -36.05,-5.41 -16.41,2.2 -45.94,12.81 -46.23,12.94 z"/>
    <path id="path13265" style="fill:#263238" d="m 474.8,435.93 c 0,0 -3.1,-0.77 -7.92,-1.78 l 0.21,-1 c 4.84,1 7.93,1.78 8,1.79 z"/>
    <path id="path13267" style="fill:#263238" d="m 463.29,433.42 c -4.22,-0.83 -7.73,-3.85 -11.44,-7 -4.68,-4 -9.52,-8.21 -16.32,-8.41 a 108.69,108.69 0 0 0 -39.19,6.53 l -0.39,0.15 -0.22,-0.36 a 62.12,62.12 0 0 0 -5.05,-6.67 l 0.75,-0.65 a 64,64 0 0 1 4.93,6.45 111,111 0 0 1 39.2,-6.45 c 7.15,0.21 12.13,4.5 16.95,8.65 3.6,3.1 7,6 11,6.82 z"/>
    <path id="path13269" style="fill:#263238" d="m 388.07,414.76 a 69,69 0 0 0 -8,-7.15 l 0.6,-0.79 a 68.42,68.42 0 0 1 8.1,7.25 z"/>
    <path id="path13271" style="fill:#263238" d="m 380.09,407.61 a 53.1,53.1 0 0 0 -13.21,-7.43 c -20.56,-7.8 -43.44,-1.94 -46,-1.25 l -0.26,-1 c 2.57,-0.7 25.74,-6.63 46.6,1.29 a 53.92,53.92 0 0 1 13.45,7.57 z"/>
    <path id="path13273" style="fill:#263238" d="m 262.64,413.17 -0.22,-1 c 0.56,-0.13 56.22,-12.56 80,-12 a 86,86 0 0 1 27.21,4.83 l -0.34,0.94 a 84.6,84.6 0 0 0 -26.93,-4.75 c -23.65,-0.55 -79.16,11.86 -79.72,11.98 z"/>
    <path id="path13275" style="fill:#263238" d="m 378.3,410.25 a 31.66,31.66 0 0 0 -4.61,-2.49 l 0.41,-0.91 a 35.93,35.93 0 0 1 4.77,2.57 z"/>
    <rect id="rect13277" style="fill:#263238" transform="rotate(-2.74,300.14315,430.36625)" height="1" width="151.28" y="429.16" x="223.87"/>
    <rect id="rect13279" style="fill:#263238" transform="rotate(-2.74,385.7973,426.34825)" height="1" width="8.2600002" y="425.04001" x="381.03"/>
    <rect id="rect13281" style="fill:#263238" transform="rotate(-1.45,267.48445,441.64554)" height="1" width="8.8100004" y="439.79001" x="262.31"/>
    <rect id="rect13283" style="fill:#263238" transform="rotate(-1.45,223.21076,442.66603)" height="1" width="69.879997" y="440.92001" x="187.39"/>
    <rect id="rect13285" style="fill:#263238" transform="matrix(1,-0.03,0.03,1,-14.55,12.35)" height="1" width="7.7600002" y="444.04999" x="360.85999"/>
    <rect id="rect13287" style="fill:#263238" transform="matrix(1,-0.03,0.03,1,-14.65,10.38)" height="1" width="98.400002" y="446.01001" x="256.26001"/>
    <rect id="rect13289" style="fill:#263238" transform="rotate(-1.96,315.89537,437.25252)" height="1" width="20.620001" y="437.20999" x="306.09"/>
    <rect id="rect13291" style="fill:#263238" transform="rotate(-1.96,357.44153,435.62414)" height="1" width="51.139999" y="435.79001" x="332.32999"/>
    <rect id="rect13293" style="fill:#263238" transform="rotate(-1.57,234.02633,447.76065)" height="1" width="7.1300001" y="448.26001" x="231.14"/>
    <rect id="rect13295" style="fill:#263238" transform="rotate(-1.57,193.13547,448.66033)" height="1" width="66.339996" y="449.38" x="160.36"/>
  </g>
  <g transform="matrix(0.69863086,0,0,0.69863086,82.389805,141.422)" id="freepik--Glasses--inject-2">
    <path id="path13298" style="fill:#263238" d="m 279.12,230.29 c 0,0 14.7,-19.33 24,-27.38 9.3,-8.05 25.17,-20.74 31.62,-20.74 6.45,0 8.05,4 8.46,5.43 0.41,1.43 5.8,21.75 5.8,22.76 0,1.01 -5.63,2.62 -6,1.41 -0.37,-1.21 -2.82,-18.53 -3.82,-21.75 -1,-3.22 -0.81,-5 -8.46,-1.81 -7.65,3.19 -30.2,27.38 -34.84,33 -4.64,5.62 -9.06,11.48 -9.06,11.48 0,0 -5.48,-2.4 -7.7,-2.4 z"/>
    <path id="path13300" style="fill:#263238" d="m 286.93,233.33 -0.36,-0.16 c -0.05,0 -5.37,-2.38 -7.45,-2.38 h -1 l 0.61,-0.8 c 0.15,-0.19 14.84,-19.46 24,-27.46 7.21,-6.27 24.76,-20.86 31.94,-20.86 6.57,0 8.44,4.05 8.94,5.8 0.28,1 5.85,21.74 5.85,22.89 0,1.15 -3.37,2.09 -4.27,2.24 -1.59,0.25 -2.51,0 -2.74,-0.67 -0.16,-0.5 -0.55,-2.93 -1.23,-7.19 -0.84,-5.34 -2,-12.66 -2.6,-14.57 l -0.22,-0.74 c -0.33,-1.14 -0.58,-2 -1.21,-2.26 -0.9,-0.43 -2.87,0 -6.36,1.5 -7.42,3.12 -29.72,26.89 -34.64,32.88 -4.57,5.57 -9,11.4 -9.05,11.46 z m -6.87,-3.44 a 35.64,35.64 0 0 1 6.55,2.21 c 1,-1.29 4.86,-6.34 8.84,-11.18 4.41,-5.38 27.09,-29.83 35,-33.17 3.92,-1.65 5.94,-2.07 7.17,-1.48 1,0.49 1.36,1.6 1.74,2.88 0.07,0.23 0.14,0.47 0.22,0.72 0.62,2 1.73,9 2.63,14.71 0.54,3.39 1,6.59 1.19,7 a 3,3 0 0 0 1.6,0 7.39,7.39 0 0 0 3.48,-1.33 c -0.07,-1 -5.31,-20.72 -5.84,-22.55 -0.53,-1.83 -2.29,-5.07 -8,-5.07 -7,0 -25.73,15.78 -31.29,20.62 -8.06,7.09 -20.54,23.08 -23.29,26.64 z"/>
    <path id="path13302" style="fill:#ffffff" d="m 527.94,250 c -0.47,-0.68 -1.1,-1.47 -1.54,-1.58 -0.71,-0.18 -5.43,7.84 -6.59,9.82 a 13.54,13.54 0 0 1 2.16,-2.17 c 0,0.6 -2.42,12.48 -4.63,18.12 -2.21,5.64 -1.62,8.26 0.6,8.06 2.22,-0.2 5.23,-10.27 7,-15.91 a 78.35,78.35 0 0 0 3,-16.34 z"/>
    <path id="path13304" style="fill:#263238" d="m 517.71,282.76 a 2,2 0 0 1 -1.7,-0.8 c -1,-1.3 -0.67,-4 0.86,-7.95 1.78,-4.53 3.7,-13.17 4.36,-16.57 l -1.05,1.14 -3.18,3.42 2.36,-4.05 c 6,-10.34 6.7,-10.17 7.14,-10.06 0.44,0.11 0.84,0.35 1.83,1.78 l 0.1,0.15 V 250 a 77.87,77.87 0 0 1 -3,16.46 l -0.45,1.43 c -2.64,8.28 -4.83,14.62 -7,14.82 z m 4.29,-27.22 0.15,0.05 0.32,0.12 v 0.36 c 0,0.7 -2.45,12.64 -4.67,18.3 -1.93,4.92 -1.34,6.52 -1,7 a 1.12,1.12 0 0 0 1.08,0.39 c 1.71,-0.16 4.72,-9.6 6.16,-14.13 l 0.46,-1.44 a 77.14,77.14 0 0 0 2.92,-16 4.71,4.71 0 0 0 -1,-1.17 47.81,47.81 0 0 0 -4.42,6.52 z"/>
    <path id="path13306" style="fill:#263238" d="m 527.81,245.8 c -0.81,-3.63 -6,1 -8.26,4.23 -2.26,3.23 -12.28,14.09 -17.92,19.53 -5.64,5.44 -26.78,23.56 -29,25.17 -2.22,1.61 -4.83,4.43 -6.44,4.63 -1.61,0.2 -5.84,0 -7.85,-1.21 -2.01,-1.21 -3,-3.42 -12.69,-8.65 -9.69,-5.23 -51.55,-17.32 -54.57,-17.5 -3.02,-0.18 -5.44,2.82 -9.67,4.63 -4.23,1.81 -11.27,2.21 -14.29,-0.41 -3.02,-2.62 -6.65,-9.26 -8.66,-14.09 -2.01,-4.83 -5.24,-6 -8.06,-7.65 -2.82,-1.65 -36.64,-16.48 -42.89,-18.55 -6.25,-2.07 -12.48,-3.42 -15.3,-3.62 a 20.9,20.9 0 0 0 -5.44,0.4 c 0,0 -0.4,0.6 -2,-0.6 -1.6,-1.2 -6.85,-3.43 -8.46,-0.21 -1.61,3.22 -4,10.68 -2.62,13.5 l 1.41,2.82 c 0,0 -1.41,18.12 -0.8,24.36 0.61,6.24 5.44,14.3 9.46,19.13 4.02,4.83 20.14,13.89 32,16.71 11.86,2.82 19.13,1.21 22.35,-1 3.22,-2.21 13.09,-13.29 15.51,-15.91 2.42,-2.62 2.21,-4.23 10.06,-1.81 7.85,2.42 10.68,8.05 12.09,12.28 1.41,4.23 6.64,21.14 10.87,26.58 a 50.61,50.61 0 0 0 20.54,16.31 c 10.27,4.43 17.11,7.85 26.78,6.65 9.67,-1.2 14.9,-5.64 17.92,-10.88 3.02,-5.24 5,-15.7 6,-18.93 a 11,11 0 0 1 4.23,-5.23 c 0,0 4,-1.81 5.24,-4.63 1.24,-2.82 10.67,-11.48 10.67,-11.48 0,0 15.3,-12.08 21.14,-18.73 5.84,-6.65 22.84,-26.18 22.84,-25.57 0,0.61 -2.42,12.48 -4.63,18.12 -2.21,5.64 -1.62,8.26 0.6,8.06 2.22,-0.2 5.23,-10.27 7,-15.91 1.77,-5.64 3.64,-16.92 2.84,-20.54 z M 356.65,279 a 12.44,12.44 0 0 1 -1.61,3.43 c -1.21,1.81 -9.27,14.7 -14.3,18.72 -5.03,4.02 -10.87,7.45 -16.92,6.85 -6.05,-0.6 -21.54,-6.44 -33,-15.5 -11.46,-9.06 -13.09,-20.95 -11.88,-32.42 1.21,-11.47 5.24,-19.34 11.28,-20.54 6.04,-1.2 26,3.82 39.67,11.07 13.67,7.25 25.37,16.11 26.17,19.13 0.8,3.02 0.59,9.26 0.59,9.26 z m 96.45,41.3 c -1.21,10.47 -3.62,16.52 -7.25,21.35 -3.63,4.83 -7.85,7.05 -19.13,6 -11.28,-1.05 -19.73,-5.24 -27.59,-10.87 -7.86,-5.63 -10.47,-13.09 -13.49,-20.14 -3.02,-7.05 -8.25,-21.14 -5.23,-30 3.02,-8.86 11.88,-6.64 11.88,-6.64 0,0 7.45,1.61 8,1.81 0.55,0.2 45.11,13.29 47.12,16.31 2.01,3.02 6.9,11.71 5.69,22.18 z"/>
    <path id="path13308" style="fill:#263238" d="m 430.11,352.26 c -7.17,0 -13.09,-2.57 -20.83,-5.94 l -2.29,-1 a 51,51 0 0 1 -20.73,-16.46 c -3.86,-5 -8.45,-19.06 -10.42,-25.08 -0.21,-0.66 -0.4,-1.22 -0.54,-1.65 -1.33,-4 -4,-9.58 -11.75,-12 -6.48,-2 -7.12,-1.21 -8.68,0.66 -0.26,0.32 -0.54,0.66 -0.88,1 l -1.5,1.64 c -3.66,4 -11.29,12.42 -14.09,14.34 -1.64,1.13 -8.14,4.55 -22.75,1.08 -11.69,-2.78 -28.1,-11.86 -32.28,-16.88 -4.34,-5.2 -9,-13.22 -9.58,-19.4 -0.58,-6 0.66,-22.5 0.79,-24.32 l -1.34,-2.69 c -1.52,-3 1,-10.7 2.62,-13.94 a 3.34,3.34 0 0 1 2.33,-1.82 c 2.5,-0.59 5.77,1 6.87,1.85 0.86,0.64 1.25,0.66 1.35,0.65 l 0.06,-0.09 0.19,-0.05 a 21.13,21.13 0 0 1 5.59,-0.41 c 3.06,0.22 9.54,1.75 15.42,3.65 6.24,2 40.26,17 43,18.56 l 1.08,0.6 c 2.51,1.37 5.36,2.91 7.19,7.3 2.11,5.07 5.72,11.48 8.52,13.91 2.8,2.43 9.54,2.13 13.78,0.32 a 28.49,28.49 0 0 0 4.26,-2.42 c 2,-1.28 3.65,-2.37 5.63,-2.25 3.22,0.21 45.35,12.47 54.78,17.58 6.88,3.72 9.37,5.9 11,7.34 a 11.77,11.77 0 0 0 1.68,1.32 c 1.86,1.12 6,1.34 7.54,1.15 0.93,-0.12 2.44,-1.42 3.91,-2.67 0.76,-0.65 1.55,-1.33 2.3,-1.87 2.14,-1.56 23.25,-19.64 28.94,-25.13 5.49,-5.3 15.65,-16.25 17.86,-19.46 1.53,-2.22 5.37,-6.17 7.67,-5.73 a 1.92,1.92 0 0 1 1.48,1.68 c 0.87,3.91 -1.09,15.39 -2.83,20.8 l -0.45,1.43 c -2.64,8.28 -4.83,14.62 -7,14.82 a 2.07,2.07 0 0 1 -2,-0.78 c -1,-1.3 -0.67,-4 0.86,-7.95 1.78,-4.53 3.7,-13.18 4.36,-16.57 -2.89,3.07 -11.36,12.76 -16.73,18.91 l -4.91,5.71 c -5.8,6.61 -21.06,18.67 -21.21,18.79 -3.22,2.95 -9.6,9.13 -10.52,11.28 -1.27,3 -5.32,4.82 -5.49,4.89 v 0 a 10.56,10.56 0 0 0 -4,4.93 c -0.25,0.81 -0.58,2.14 -1,3.68 -1.13,4.54 -2.83,11.4 -5.12,15.35 -3.69,6.41 -9.67,10 -18.29,11.12 a 31.51,31.51 0 0 1 -3.85,0.22 z M 358,288 a 21.63,21.63 0 0 1 5.84,1.22 c 8.2,2.52 11,8.4 12.41,12.6 0.14,0.43 0.33,1 0.54,1.66 1.95,6 6.51,20 10.25,24.77 a 50.05,50.05 0 0 0 20.35,16.16 l 2.29,1 c 9,3.9 15.43,6.72 24.23,5.62 8.28,-1 14,-4.51 17.55,-10.63 2.21,-3.83 3.9,-10.61 5,-15.1 0.39,-1.55 0.72,-2.88 1,-3.73 a 11.38,11.38 0 0 1 4.44,-5.51 c 0.09,-0.05 3.92,-1.8 5,-4.4 1.23,-2.89 10.4,-11.29 10.79,-11.65 0.18,-0.14 15.36,-12.15 21.11,-18.69 l 4.91,-5.61 c 17.77,-20.35 17.87,-20.31 18.39,-20.11 l 0.32,0.12 v 0.36 c 0,0.7 -2.45,12.64 -4.67,18.3 -1.93,4.92 -1.34,6.52 -1,7 a 1.12,1.12 0 0 0 1.08,0.39 c 1.71,-0.16 4.72,-9.6 6.16,-14.13 l 0.46,-1.44 c 1.85,-5.75 3.57,-16.82 2.81,-20.27 v 0 c -0.16,-0.73 -0.48,-0.87 -0.7,-0.92 -1.48,-0.27 -4.84,2.68 -6.66,5.32 -2.29,3.33 -12.39,14.22 -18,19.61 -5.61,5.39 -26.9,23.65 -29.05,25.21 -0.72,0.52 -1.49,1.19 -2.24,1.83 -1.65,1.41 -3.21,2.74 -4.44,2.9 -1.47,0.18 -5.92,0.08 -8.17,-1.28 a 12.64,12.64 0 0 1 -1.83,-1.42 c -1.61,-1.42 -4.06,-3.55 -10.84,-7.23 -9.36,-5.07 -51.18,-17.24 -54.36,-17.45 -1.65,-0.12 -3.14,0.86 -5,2.09 a 28.53,28.53 0 0 1 -4.42,2.5 c -4.51,1.93 -11.71,2.21 -14.82,-0.49 -3.11,-2.7 -6.7,-9.26 -8.79,-14.28 -1.69,-4.06 -4.26,-5.45 -6.75,-6.8 l -1.09,-0.61 c -2.71,-1.55 -36.58,-16.48 -42.8,-18.48 a 80.87,80.87 0 0 0 -15.19,-3.6 20.51,20.51 0 0 0 -5.16,0.36 1,1 0 0 1 -0.42,0.17 3,3 0 0 1 -2.13,-0.83 c -1.06,-0.8 -4,-2.15 -6,-1.68 a 2.37,2.37 0 0 0 -1.66,1.3 c -1.6,3.19 -3.9,10.48 -2.62,13 l 1.47,3 v 0.13 c 0,0.19 -1.4,18.15 -0.8,24.28 0.57,6 5.11,13.77 9.35,18.86 4.08,4.91 20.22,13.81 31.74,16.55 14.22,3.37 20.4,0.14 22,-0.94 2.7,-1.85 10.27,-10.18 13.91,-14.18 0.64,-0.7 1.15,-1.27 1.51,-1.65 0.36,-0.38 0.59,-0.68 0.84,-1 1.08,-1.36 1.86,-2.2 3.86,-2.2 z m 73.59,60.43 c -1.47,0 -3.1,-0.08 -4.91,-0.24 -9.92,-0.89 -18.51,-4.27 -27.84,-11 -7.28,-5.23 -10.12,-12 -12.87,-18.49 -0.26,-0.62 -0.52,-1.24 -0.79,-1.85 -4,-9.25 -8.09,-22 -5.25,-30.37 3.14,-9.18 12.39,-7 12.48,-7 0.75,0.16 7.48,1.61 8.09,1.82 l 1.06,0.32 c 20.24,6.05 44.71,13.78 46.32,16.19 1.61,2.41 7,11.48 5.72,22.48 -1.13,9.77 -3.33,16.23 -7.35,21.59 -3.08,4.17 -6.56,6.55 -14.66,6.55 z m -41.76,-68.16 c -2.71,0 -7,1 -8.95,6.57 -2.88,8.46 2,22.2 5.22,29.64 0.27,0.62 0.53,1.24 0.79,1.86 2.69,6.39 5.48,13 12.54,18.07 9.17,6.59 17.6,9.91 27.34,10.78 11.26,1 15.26,-1.27 18.68,-5.84 3.91,-5.21 6.05,-11.52 7.15,-21.1 1.23,-10.67 -3.94,-19.4 -5.55,-21.82 -0.41,-0.61 -4.92,-3.56 -45.78,-15.79 l -1.09,-0.32 c -0.42,-0.14 -5,-1.15 -8,-1.8 a 10.32,10.32 0 0 0 -2.35,-0.25 z m -64.57,28.32 a 14.86,14.86 0 0 1 -1.49,-0.07 c -6.32,-0.64 -21.81,-6.56 -33.28,-15.61 -12.85,-10.15 -13,-23.62 -12.07,-32.87 1.28,-12.1 5.53,-19.74 11.68,-21 6.15,-1.26 26.13,3.78 40,11.12 13.17,7 25.52,16.06 26.43,19.44 0.81,3.06 0.62,9.15 0.62,9.41 v 0.11 a 12.9,12.9 0 0 1 -1.68,3.57 c -0.13,0.2 -0.33,0.52 -0.61,0.94 -2.28,3.52 -9.23,14.26 -13.79,17.9 -5.98,4.8 -11.07,7.06 -15.81,7.06 z m -32.81,-68.72 a 11.11,11.11 0 0 0 -2.16,0.18 c -5.6,1.12 -9.67,8.63 -10.87,20.1 -1.51,14.32 2.2,24.48 11.69,32 10.89,8.6 26.42,14.77 32.76,15.4 4.93,0.5 10.19,-1.64 16.56,-6.74 4.43,-3.54 11.31,-14.17 13.58,-17.67 l 0.61,-0.94 a 12,12 0 0 0 1.53,-3.22 c 0,-0.63 0.15,-6.3 -0.59,-9.06 -0.74,-2.76 -12.22,-11.56 -25.93,-18.82 -12.34,-6.56 -29.55,-11.23 -37.18,-11.23 z"/>
    <path id="path13310" style="fill:#ffffff" d="m 371.63,282.81 a 11.71,11.71 0 0 1 -2.61,-0.28 c -7.18,-1.59 -9.95,-9.35 -11.78,-14.49 l -0.26,-0.73 c -1.71,-4.75 -3.42,-6 -3.43,-6 l 0.55,-0.82 c 0.08,0.05 2,1.35 3.82,6.48 l 0.26,0.73 c 1.76,4.93 4.42,12.38 11.06,13.86 6.92,1.53 14,-4.47 14.06,-4.53 l 0.66,0.76 c -0.27,0.21 -5.96,5.02 -12.33,5.02 z"/>
    <path id="path13312" style="fill:#ffffff" d="M 461.79,305.77 A 16.39,16.39 0 0 1 455,304 a 2.23,2.23 0 0 1 -0.55,-0.72 c -0.93,-1.58 -3.78,-6.36 -15.69,-11.73 -14.09,-6.35 -46.31,-14.39 -46.63,-14.47 l 0.24,-1 c 0.32,0.08 32.63,8.14 46.8,14.53 12.19,5.5 15.17,10.48 16.14,12.12 0.11,0.18 0.23,0.38 0.27,0.43 0.41,0.26 6.28,2.84 9.06,0.79 l 0.6,0.81 a 5.86,5.86 0 0 1 -3.45,1.01 z"/>
    <path id="path13314" style="fill:#ffffff" d="m 351.9,259.47 c 0,0 -4,-3.29 -20.63,-10.8 a 206.84,206.84 0 0 0 -33.81,-11.52 c -1.18,-0.31 -2.11,-0.55 -2.77,-0.74 a 19.55,19.55 0 0 0 -10.8,0.41 c -3.05,0.86 -6.76,-2.39 -6.91,-2.53 l 0.66,-0.75 c 0,0 3.46,3 6,2.31 a 20.51,20.51 0 0 1 11.34,-0.4 c 0.66,0.19 1.59,0.43 2.75,0.73 a 207.33,207.33 0 0 1 34,11.58 c 16.79,7.59 20.7,10.81 20.86,10.95 z"/>
    <path id="path13316" style="fill:#ffffff" d="m 285.24,290.68 c -9.14,-7.93 -8.44,-21.42 -8.43,-21.55 l 1,0.06 c 0,0.13 -0.68,13.14 8.08,20.73 z"/>
  </g>
</svg>